<svg width="24" height="24" viewBox="0 0 24 24" fill="none" xmlns="http://www.w3.org/2000/svg">
<g clip-path="url(#clip0_201_14)">
<path d="M5.53287 22.9844C3.97829 22.9844 3.01805 21.2884 3.81789 19.9554L6.83527 14.9264C7.55817 13.7216 8.86021 12.9844 10.2653 12.9844L13.7357 12.9844C15.1408 12.9844 16.4428 13.7216 17.1657 14.9264L20.1831 19.9554C20.9829 21.2884 20.0227 22.9844 18.4681 22.9844L5.53287 22.9844Z" fill="#57534E"/>
<path d="M2.72203e-06 2.21868C2.90083e-06 1.15948 1.2724 0.619676 2.03402 1.35588L4.78008 4.01044C5.55974 4.7641 6.00001 5.802 6.00001 6.88638L6.00001 11.8817C6.00001 12.6067 5.80297 13.3181 5.42997 13.9397L2.22898 19.2747C1.60281 20.3183 -2.57965e-07 19.8744 -5.25443e-08 18.6573L2.72203e-06 2.21868Z" fill="#57534E"/>
<path d="M24 2.21868C24 1.15948 22.7276 0.619676 21.966 1.35588L19.2199 4.01044C18.4403 4.7641 18 5.802 18 6.88638L18 11.8817C18 12.6067 18.197 13.3181 18.57 13.9397L21.771 19.2747C22.3972 20.3183 24 19.8744 24 18.6573L24 2.21868Z" fill="#57534E"/>
<path d="M12 5.78906C10.3431 5.78906 9 7.13221 9 8.78906C9 10.4459 10.3431 11.7891 12 11.7891C13.6569 11.7891 15 10.4459 15 8.78906C15 7.13221 13.6569 5.78906 12 5.78906Z" fill="#57534E"/>
</g>
<defs>
<clipPath id="clip0_201_14">
<rect width="24" height="24" fill="white"/>
</clipPath>
</defs>
</svg>
